<svg width="50" height="41" viewBox="0 0 50 41" fill="none" xmlns="http://www.w3.org/2000/svg">
<path d="M22.7272 41L15.5113 34.5083C12.784 32.0407 10.4454 29.8389 8.49539 27.9028C6.54388 25.9667 4.93403 24.1444 3.66585 22.4361C2.39615 20.7278 1.46812 19.0764 0.881757 17.4819C0.293878 15.8875 -6.10352e-05 14.2171 -6.10352e-05 12.4708C-6.10352e-05 8.90232 1.19312 5.93133 3.57948 3.55789C5.96585 1.18596 8.93933 0 12.4999 0C14.4696 0 16.3446 0.417592 18.1249 1.25278C19.9052 2.08796 21.4393 3.26481 22.7272 4.78333C24.0151 3.26481 25.5492 2.08796 27.3295 1.25278C29.1098 0.417592 30.9848 0 32.9545 0C36.0227 0 38.5984 0.863278 40.6818 2.58983C42.7651 4.31791 44.1855 6.49167 44.9431 9.11111H40.1136C39.4318 7.59259 38.428 6.4537 37.1022 5.69444C35.7765 4.93518 34.3939 4.55556 32.9545 4.55556C31.0227 4.55556 29.356 5.07793 27.9545 6.12267C26.553 7.16589 25.2462 8.54167 24.034 10.25H21.4204C20.2462 8.54167 18.9113 7.16589 17.4158 6.12267C15.9189 5.07793 14.2802 4.55556 12.4999 4.55556C10.3408 4.55556 8.47494 5.30494 6.90221 6.80372C5.331 8.30402 4.54539 10.1931 4.54539 12.4708C4.54539 13.7236 4.81054 14.9954 5.34085 16.2861C5.87115 17.5769 6.81812 19.0673 8.18176 20.7574C9.54539 22.446 11.4015 24.4193 13.7499 26.6773C16.0984 28.9369 19.0908 31.6611 22.7272 34.85C23.7121 33.9768 24.8674 32.9708 26.1931 31.8319C27.5189 30.6931 28.5795 29.744 29.3749 28.9847L29.8863 29.4972L30.9931 30.6088L32.1022 31.7181L32.6136 32.2306C31.7802 32.9898 30.7196 33.929 29.4318 35.0482C28.1439 36.1688 27.0075 37.1657 26.0227 38.0389L22.7272 41ZM38.6363 31.8889V25.0556H31.8181V20.5H38.6363V13.6667H43.1818V20.5H49.9999V25.0556H43.1818V31.8889H38.6363Z" fill="white"/>
</svg>
