<svg width="23" height="41" viewBox="0 0 23 41" fill="none" xmlns="http://www.w3.org/2000/svg">
<path d="M12.3811 17.9944C7.25239 16.6506 5.60308 15.2611 5.60308 13.0972C5.60308 10.6144 7.88501 8.88333 11.7033 8.88333C15.7249 8.88333 17.216 10.8194 17.3516 13.6667H22.3447C22.1866 9.74889 19.8143 6.15 15.0923 4.98833V0H8.31428V4.92C3.93118 5.87667 0.406618 8.74667 0.406618 13.1428C0.406618 18.4044 4.72194 21.0239 11.0255 22.55C16.6738 23.9167 17.8035 25.9211 17.8035 28.0394C17.8035 29.6111 16.6964 32.1167 11.7033 32.1167C7.04905 32.1167 5.219 30.0211 4.97047 27.3333H-6.10352e-05C0.271059 32.3217 3.97636 35.1233 8.31428 36.0572V41H15.0923V36.1028C19.498 35.26 22.9999 32.6861 22.9999 28.0167C22.9999 21.5478 17.5098 19.3383 12.3811 17.9944Z" fill="white"/>
</svg>
