<svg width="50" height="48" viewBox="0 0 50 48" fill="none" xmlns="http://www.w3.org/2000/svg">
<path d="M17.2727 48L12.9545 40.6857L4.77267 38.8571L5.56812 30.4L-6.10352e-05 24L5.56812 17.6L4.77267 9.14286L12.9545 7.31429L17.2727 0L24.9999 3.31429L32.7272 0L37.0454 7.31429L45.2272 9.14286L44.4318 17.6L49.9999 24L44.4318 30.4L45.2272 38.8571L37.0454 40.6857L32.7272 48L24.9999 44.6857L17.2727 48ZM19.2045 42.1714L24.9999 39.6571L30.909 42.1714L34.0908 36.6857L40.3408 35.2L39.7727 28.8L43.9772 24L39.7727 19.0857L40.3408 12.6857L34.0908 11.3143L30.7954 5.82857L24.9999 8.34286L19.0908 5.82857L15.909 11.3143L9.65903 12.6857L10.2272 19.0857L6.02267 24L10.2272 28.8L9.65903 35.3143L15.909 36.6857L19.2045 42.1714ZM22.6136 32.1143L35.4545 19.2L32.2727 15.8857L22.6136 25.6L17.7272 20.8L14.5454 24L22.6136 32.1143Z" fill="white"/>
</svg>
