<svg width="46" height="46" viewBox="0 0 46 46" fill="none" xmlns="http://www.w3.org/2000/svg">
<path d="M40.7819 22.6566H4.53127L-6.10352e-05 45.3133H45.3132L40.7819 22.6566ZM37.0662 27.1879L37.9725 31.7193H24.9222V27.1879H37.0662ZM20.3909 27.1879V31.7193H7.34069L8.24695 27.1879H20.3909ZM6.43442 36.2506H20.3909V40.7819H5.52816L6.43442 36.2506ZM24.9222 40.7819V36.2506H38.8787L39.785 40.7819H24.9222Z" fill="white"/>
<path d="M24.9223 13.594H20.3909V20.391H24.9223V13.594Z" fill="white"/>
<path d="M34.3897 8.58923L31.1856 11.7933L35.9918 16.5995L39.1959 13.3954L34.3897 8.58923Z" fill="white"/>
<path d="M10.9343 8.59033L6.12817 13.3965L9.33228 16.6006L14.1384 11.7944L10.9343 8.59033Z" fill="white"/>
<path d="M9.06262 0H2.26562V4.53133H9.06262V0Z" fill="white"/>
<path d="M43.0475 0H36.2505V4.53133H43.0475V0Z" fill="white"/>
<path d="M22.6566 11.3283C28.9098 11.3283 33.9849 6.25323 33.9849 0H29.4536C29.4536 3.73835 26.3949 6.79699 22.6566 6.79699C18.9182 6.79699 15.8596 3.73835 15.8596 0H11.3282C11.3282 6.25323 16.4033 11.3283 22.6566 11.3283Z" fill="white"/>
</svg>
