<svg width="29" height="29" viewBox="0 0 29 29" fill="none" xmlns="http://www.w3.org/2000/svg">
<path d="M5.70327 3.22222C5.79994 4.65611 6.04161 6.05778 6.42827 7.395L4.49494 9.32833C3.83438 7.395 3.41549 5.34889 3.27049 3.22222H5.70327ZM21.5888 22.5878C22.9583 22.9744 24.3599 23.2161 25.7777 23.3128V25.7133C23.6511 25.5683 21.6049 25.1494 19.6555 24.505L21.5888 22.5878ZM7.24994 0H1.61105C0.724939 0 -6.10352e-05 0.725 -6.10352e-05 1.61111C-6.10352e-05 16.7394 12.2605 29 27.3888 29C28.2749 29 28.9999 28.275 28.9999 27.3889V21.7661C28.9999 20.88 28.2749 20.155 27.3888 20.155C25.3911 20.155 23.4416 19.8328 21.6372 19.2367C21.4761 19.1722 21.2988 19.1561 21.1377 19.1561C20.7188 19.1561 20.316 19.3172 19.9938 19.6233L16.4494 23.1678C11.8899 20.8317 8.15216 17.11 5.83216 12.5506L9.37661 9.00611C9.82772 8.555 9.95661 7.92667 9.77938 7.36278C9.18327 5.55833 8.86105 3.625 8.86105 1.61111C8.86105 0.725 8.13605 0 7.24994 0Z" fill="#100B01"/>
</svg>
