<svg width="274" height="30" viewBox="0 0 274 30" fill="none" xmlns="http://www.w3.org/2000/svg">
<path d="M16.034 8.32955C15.9052 7.85227 15.7158 7.43182 15.4658 7.06818C15.2158 6.69697 14.909 6.38258 14.5454 6.125C14.1818 5.86742 13.7651 5.67424 13.2954 5.54545C12.8257 5.40909 12.3105 5.34091 11.7499 5.34091C10.6212 5.34091 9.64388 5.61364 8.81812 6.15909C7.99994 6.70454 7.36736 7.5 6.92039 8.54545C6.47342 9.58333 6.24994 10.8447 6.24994 12.3295C6.24994 13.822 6.46585 15.0947 6.89767 16.1477C7.32948 17.2008 7.95448 18.0038 8.77267 18.5568C9.59085 19.1098 10.5833 19.3864 11.7499 19.3864C12.7802 19.3864 13.6515 19.2197 14.3636 18.8864C15.0833 18.5455 15.6287 18.0644 15.9999 17.4432C16.3712 16.822 16.5568 16.0909 16.5568 15.25L17.6022 15.375H11.9431V11.2727H21.9772V14.3523C21.9772 16.4356 21.534 18.2197 20.6477 19.7045C19.7689 21.1894 18.5568 22.3295 17.0113 23.125C15.4734 23.9205 13.7045 24.3182 11.7045 24.3182C9.48479 24.3182 7.53403 23.8371 5.85221 22.875C4.17039 21.9129 2.85979 20.5417 1.92039 18.7614C0.981 16.9735 0.511303 14.8523 0.511303 12.3977C0.511303 10.4886 0.795394 8.79545 1.36358 7.31818C1.93176 5.83333 2.72342 4.57576 3.73858 3.54545C4.7613 2.51515 5.94312 1.73485 7.28403 1.20454C8.63252 0.674241 10.0833 0.40909 11.6363 0.40909C12.9848 0.40909 14.2386 0.602272 15.3977 0.988636C16.5643 1.375 17.5946 1.92045 18.4886 2.625C19.3901 3.32955 20.1212 4.16667 20.6818 5.13636C21.2424 6.10606 21.5908 7.17045 21.7272 8.32955H16.034ZM25.2926 24V6.54545H30.6903V9.72727H30.8721C31.1903 8.57576 31.7092 7.7197 32.4289 7.15909C33.1486 6.59091 33.9857 6.30682 34.9403 6.30682C35.1979 6.30682 35.463 6.32576 35.7357 6.36364C36.0085 6.39394 36.2622 6.44318 36.4971 6.51136V11.3409C36.2319 11.25 35.8835 11.178 35.4516 11.125C35.0274 11.072 34.6486 11.0455 34.3153 11.0455C33.6562 11.0455 33.0615 11.1932 32.5312 11.4886C32.0085 11.7765 31.5956 12.1818 31.2926 12.7045C30.9971 13.2197 30.8494 13.8258 30.8494 14.5227V24H25.2926ZM46.0141 24.3295C44.1884 24.3295 42.6126 23.9697 41.2869 23.25C39.9687 22.5227 38.9535 21.4886 38.2414 20.1477C37.5369 18.7992 37.1846 17.197 37.1846 15.3409C37.1846 13.5379 37.5407 11.9621 38.2528 10.6136C38.9649 9.25758 39.9687 8.20454 41.2641 7.45454C42.5596 6.69697 44.0861 6.31818 45.8437 6.31818C47.0861 6.31818 48.2225 6.51136 49.2528 6.89773C50.2831 7.28409 51.1732 7.85606 51.9232 8.61364C52.6732 9.37121 53.2566 10.3068 53.6732 11.4205C54.0899 12.5265 54.2982 13.7955 54.2982 15.2273V16.6136H39.1278V13.3864H49.1278C49.1202 12.7955 48.9801 12.2689 48.7073 11.8068C48.4346 11.3447 48.0596 10.9848 47.5823 10.7273C47.1126 10.4621 46.571 10.3295 45.9573 10.3295C45.3361 10.3295 44.7793 10.4697 44.2869 10.75C43.7944 11.0227 43.4043 11.3977 43.1164 11.875C42.8285 12.3447 42.677 12.8788 42.6619 13.4773V16.7614C42.6619 17.4735 42.802 18.0985 43.0823 18.6364C43.3626 19.1667 43.7604 19.5795 44.2755 19.875C44.7907 20.1705 45.4043 20.3182 46.1164 20.3182C46.6088 20.3182 47.0558 20.25 47.4573 20.1136C47.8588 19.9773 48.2035 19.7765 48.4914 19.5114C48.7793 19.2462 48.9952 18.9205 49.1391 18.5341L54.2414 18.6818C54.0293 19.8258 53.5634 20.822 52.8437 21.6705C52.1316 22.5114 51.196 23.1667 50.0369 23.6364C48.8778 24.0985 47.5369 24.3295 46.0141 24.3295ZM65.2954 24.3295C63.4696 24.3295 61.8939 23.9697 60.5681 23.25C59.2499 22.5227 58.2348 21.4886 57.5227 20.1477C56.8181 18.7992 56.4658 17.197 56.4658 15.3409C56.4658 13.5379 56.8219 11.9621 57.534 10.6136C58.2462 9.25758 59.2499 8.20454 60.5454 7.45454C61.8408 6.69697 63.3674 6.31818 65.1249 6.31818C66.3674 6.31818 67.5037 6.51136 68.534 6.89773C69.5643 7.28409 70.4545 7.85606 71.2045 8.61364C71.9545 9.37121 72.5378 10.3068 72.9545 11.4205C73.3712 12.5265 73.5795 13.7955 73.5795 15.2273V16.6136H58.409V13.3864H68.409C68.4015 12.7955 68.2613 12.2689 67.9886 11.8068C67.7158 11.3447 67.3408 10.9848 66.8636 10.7273C66.3939 10.4621 65.8522 10.3295 65.2386 10.3295C64.6174 10.3295 64.0605 10.4697 63.5681 10.75C63.0757 11.0227 62.6855 11.3977 62.3977 11.875C62.1098 12.3447 61.9583 12.8788 61.9431 13.4773V16.7614C61.9431 17.4735 62.0833 18.0985 62.3636 18.6364C62.6439 19.1667 63.0416 19.5795 63.5568 19.875C64.0719 20.1705 64.6855 20.3182 65.3977 20.3182C65.8901 20.3182 66.3371 20.25 66.7386 20.1136C67.1401 19.9773 67.4848 19.7765 67.7727 19.5114C68.0605 19.2462 68.2765 18.9205 68.4204 18.5341L73.5227 18.6818C73.3105 19.8258 72.8446 20.822 72.1249 21.6705C71.4128 22.5114 70.4772 23.1667 69.3181 23.6364C68.159 24.0985 66.8181 24.3295 65.2954 24.3295ZM81.9744 14.0455V24H76.4176V6.54545H81.7016V9.75H81.8948C82.2812 8.68182 82.9403 7.8447 83.8721 7.23864C84.8039 6.625 85.9138 6.31818 87.2016 6.31818C88.4289 6.31818 89.4933 6.5947 90.3948 7.14773C91.3039 7.69318 92.0085 8.45833 92.5085 9.44318C93.016 10.4205 93.266 11.5644 93.2585 12.875V24H87.7016V13.9659C87.7092 12.9962 87.463 12.2386 86.963 11.6932C86.4706 11.1477 85.785 10.875 84.9062 10.875C84.3229 10.875 83.8077 11.0038 83.3607 11.2614C82.9213 11.5114 82.5804 11.8712 82.338 12.3409C82.1032 12.8106 81.9819 13.3788 81.9744 14.0455ZM103.574 24V0.727272H113.187C114.93 0.727272 116.434 1.06818 117.699 1.75C118.972 2.42424 119.953 3.36742 120.642 4.57954C121.331 5.78409 121.676 7.18561 121.676 8.78409C121.676 10.3902 121.324 11.7955 120.619 13C119.922 14.197 118.926 15.125 117.631 15.7841C116.335 16.4432 114.797 16.7727 113.017 16.7727H107.085V12.3409H111.972C112.82 12.3409 113.528 12.1932 114.097 11.8977C114.672 11.6023 115.108 11.1894 115.403 10.6591C115.699 10.1212 115.847 9.49621 115.847 8.78409C115.847 8.06439 115.699 7.44318 115.403 6.92045C115.108 6.39015 114.672 5.98106 114.097 5.69318C113.521 5.4053 112.812 5.26136 111.972 5.26136H109.199V24H103.574ZM132.253 24.3295C130.419 24.3295 128.844 23.9545 127.526 23.2045C126.215 22.447 125.204 21.3939 124.491 20.0455C123.787 18.6894 123.435 17.1174 123.435 15.3295C123.435 13.5341 123.787 11.9621 124.491 10.6136C125.204 9.25758 126.215 8.20454 127.526 7.45454C128.844 6.69697 130.419 6.31818 132.253 6.31818C134.086 6.31818 135.658 6.69697 136.969 7.45454C138.287 8.20454 139.298 9.25758 140.003 10.6136C140.715 11.9621 141.071 13.5341 141.071 15.3295C141.071 17.1174 140.715 18.6894 140.003 20.0455C139.298 21.3939 138.287 22.447 136.969 23.2045C135.658 23.9545 134.086 24.3295 132.253 24.3295ZM132.287 20.1364C132.954 20.1364 133.518 19.9318 133.98 19.5227C134.442 19.1136 134.794 18.5455 135.037 17.8182C135.287 17.0909 135.412 16.25 135.412 15.2955C135.412 14.3258 135.287 13.4773 135.037 12.75C134.794 12.0227 134.442 11.4545 133.98 11.0455C133.518 10.6364 132.954 10.4318 132.287 10.4318C131.597 10.4318 131.014 10.6364 130.537 11.0455C130.067 11.4545 129.707 12.0227 129.457 12.75C129.215 13.4773 129.094 14.3258 129.094 15.2955C129.094 16.25 129.215 17.0909 129.457 17.8182C129.707 18.5455 130.067 19.1136 130.537 19.5227C131.014 19.9318 131.597 20.1364 132.287 20.1364ZM146.804 24L142.258 6.54545H147.838L150.19 17.7273H150.338L152.861 6.54545H158.304L160.895 17.6477H161.043L163.327 6.54545H168.906L164.349 24H158.406L155.679 13.8295H155.486L152.758 24H146.804ZM178.92 24.3295C177.095 24.3295 175.519 23.9697 174.193 23.25C172.875 22.5227 171.86 21.4886 171.148 20.1477C170.443 18.7992 170.091 17.197 170.091 15.3409C170.091 13.5379 170.447 11.9621 171.159 10.6136C171.871 9.25758 172.875 8.20454 174.17 7.45454C175.466 6.69697 176.992 6.31818 178.75 6.31818C179.992 6.31818 181.129 6.51136 182.159 6.89773C183.189 7.28409 184.079 7.85606 184.829 8.61364C185.579 9.37121 186.163 10.3068 186.579 11.4205C186.996 12.5265 187.204 13.7955 187.204 15.2273V16.6136H172.034V13.3864H182.034C182.026 12.7955 181.886 12.2689 181.614 11.8068C181.341 11.3447 180.966 10.9848 180.489 10.7273C180.019 10.4621 179.477 10.3295 178.864 10.3295C178.242 10.3295 177.686 10.4697 177.193 10.75C176.701 11.0227 176.311 11.3977 176.023 11.875C175.735 12.3447 175.583 12.8788 175.568 13.4773V16.7614C175.568 17.4735 175.708 18.0985 175.989 18.6364C176.269 19.1667 176.667 19.5795 177.182 19.875C177.697 20.1705 178.311 20.3182 179.023 20.3182C179.515 20.3182 179.962 20.25 180.364 20.1136C180.765 19.9773 181.11 19.7765 181.398 19.5114C181.686 19.2462 181.901 18.9205 182.045 18.5341L187.148 18.6818C186.936 19.8258 186.47 20.822 185.75 21.6705C185.038 22.5114 184.102 23.1667 182.943 23.6364C181.784 24.0985 180.443 24.3295 178.92 24.3295ZM190.043 24V6.54545H195.44V9.72727H195.622C195.94 8.57576 196.459 7.7197 197.179 7.15909C197.899 6.59091 198.736 6.30682 199.69 6.30682C199.948 6.30682 200.213 6.32576 200.486 6.36364C200.758 6.39394 201.012 6.44318 201.247 6.51136V11.3409C200.982 11.25 200.633 11.178 200.202 11.125C199.777 11.072 199.399 11.0455 199.065 11.0455C198.406 11.0455 197.811 11.1932 197.281 11.4886C196.758 11.7765 196.346 12.1818 196.043 12.7045C195.747 13.2197 195.599 13.8258 195.599 14.5227V24H190.043ZM207.182 20.8182L207.079 22.0795C206.989 23.125 206.803 24.1439 206.523 25.1364C206.25 26.1364 205.958 27.0341 205.648 27.8295C205.337 28.625 205.091 29.2424 204.909 29.6818H201.409C201.53 29.2424 201.693 28.625 201.898 27.8295C202.11 27.0341 202.307 26.1364 202.489 25.1364C202.67 24.1364 202.773 23.1212 202.795 22.0909L202.818 20.8182H207.182ZM216.855 24V0.727272H222.48V19.4318H232.162V24H216.855ZM235.074 24V0.727272H240.699V19.4318H250.381V24H235.074ZM273.511 9.15909H267.829C267.754 8.57576 267.598 8.04924 267.364 7.57954C267.129 7.10985 266.818 6.70833 266.432 6.375C266.045 6.04167 265.587 5.78788 265.057 5.61364C264.534 5.43182 263.954 5.34091 263.318 5.34091C262.189 5.34091 261.216 5.61742 260.398 6.17045C259.587 6.72348 258.962 7.52273 258.523 8.56818C258.091 9.61364 257.875 10.8788 257.875 12.3636C257.875 13.9091 258.095 15.2045 258.534 16.25C258.981 17.2879 259.606 18.072 260.409 18.6023C261.22 19.125 262.178 19.3864 263.284 19.3864C263.905 19.3864 264.47 19.3068 264.977 19.1477C265.492 18.9886 265.943 18.7576 266.329 18.4545C266.723 18.1439 267.045 17.7689 267.295 17.3295C267.553 16.8826 267.731 16.3788 267.829 15.8182L273.511 15.8523C273.413 16.8826 273.114 17.8977 272.614 18.8977C272.121 19.8977 271.443 20.8106 270.579 21.6364C269.716 22.4545 268.663 23.1061 267.42 23.5909C266.186 24.0758 264.769 24.3182 263.17 24.3182C261.064 24.3182 259.178 23.8561 257.511 22.9318C255.852 22 254.542 20.6439 253.579 18.8636C252.617 17.0833 252.136 14.9167 252.136 12.3636C252.136 9.80303 252.625 7.63258 253.602 5.85227C254.579 4.07197 255.901 2.7197 257.568 1.79545C259.235 0.871211 261.102 0.40909 263.17 0.40909C264.579 0.40909 265.883 0.60606 267.079 1C268.276 1.38636 269.329 1.95454 270.239 2.70454C271.148 3.44697 271.886 4.35985 272.454 5.44318C273.023 6.52652 273.375 7.76515 273.511 9.15909Z" fill="white"/>
</svg>
